<?xml version="1.0" encoding="UTF-8" standalone="no"?>
<!DOCTYPE svg PUBLIC "-//W3C//DTD SVG 1.1//EN" "http://www.w3.org/Graphics/SVG/1.1/DTD/svg11.dtd">
<svg version="1.1" xmlns="http://www.w3.org/2000/svg" xmlns:xlink="http://www.w3.org/1999/xlink" preserveAspectRatio="xMidYMid meet" viewBox="0 0 640 640" width="640" height="640"><defs><path d="M640 640C640.16 316.57 640.16 195.05 640 275.43C639.84 355.81 426.51 477.34 0 640L640 640Z" id="a2vyrKLcPH"></path><path d="M639.88 640C640.04 451.09 640.04 380.11 639.88 427.06C639.72 474.01 426.39 544.99 -0.12 640L639.88 640Z" id="bg2IE54qM"></path><path d="M99.17 388.19L37.24 388.19L37.24 545.28L144.93 545.28L144.93 430.48L161.09 430.48L161.09 563.4L21.09 563.4L21.09 370.07L99.17 370.07L99.17 388.19ZM109.93 419.98L109.93 370.07L161.09 419.98L109.93 419.98Z" id="a3Ym7pVKN"></path></defs><g><g><g><use xlink:href="#a2vyrKLcPH" opacity="1" fill="#fafafa" fill-opacity="1"></use><g><use xlink:href="#a2vyrKLcPH" opacity="1" fill-opacity="0" stroke="#000000" stroke-width="1" stroke-opacity="0.02"></use></g></g><g><use xlink:href="#bg2IE54qM" opacity="1" fill="#f2f2f2" fill-opacity="1"></use><g><use xlink:href="#bg2IE54qM" opacity="1" fill-opacity="0" stroke="#000000" stroke-width="1" stroke-opacity="0.02"></use></g></g><g><use xlink:href="#a3Ym7pVKN" opacity="1" fill="#f2f2f2" fill-opacity="1"></use></g></g></g></svg>